<svg width="284" height="327" viewBox="0 0 284 327" fill="none" xmlns="http://www.w3.org/2000/svg">
<mask id="mask0_5_179" style="mask-type:luminance" maskUnits="userSpaceOnUse" x="0" y="0" width="284" height="327">
<path d="M284 0H0V327H284V0Z" fill="white"/>
</mask>
<g mask="url(#mask0_5_179)">
<path d="M159.278 93.1607C163.771 90.9144 166.251 86.7666 164.822 83.9101C163.392 81.0535 158.599 80.5494 154.106 82.8046C152.296 83.6801 150.725 84.9713 149.525 86.5809L130.618 96.3445L135.384 105.135L153.514 94.5757C155.518 94.5757 157.495 94.0893 159.278 93.1696V93.1607Z" fill="#FFB6B6"/>
<path d="M52.1748 320.367H61.1781L65.459 285.602H52.1748V320.367Z" fill="#FFB6B6"/>
<path d="M83.0066 320.164C83.289 320.632 83.4302 322.162 83.4302 322.711C83.4302 324.4 82.0621 325.771 80.3762 325.771H52.5102C51.3627 325.771 50.4271 324.833 50.4271 323.684V322.525C50.4271 322.525 49.0501 319.032 51.8835 314.725C51.8835 314.725 55.4142 318.094 60.6838 312.814L62.2373 309.993L73.4913 318.236L79.7318 319.005C81.1 319.173 82.3092 318.979 83.0066 320.164Z" fill="#2F2E41"/>
<path d="M66.3064 282.135L74.3034 286.283L94.0576 257.381L82.2651 251.262L66.3064 282.135Z" fill="#FFB6B6"/>
<path d="M93.7752 296.153C93.8105 296.701 93.2367 298.125 92.9896 298.611C92.2128 300.115 90.3681 300.698 88.8763 299.92L64.1262 287.088C63.1023 286.557 62.7051 285.301 63.2347 284.276L63.7643 283.241C63.7643 283.241 64.1438 279.5 68.6366 276.988C68.6366 276.988 70.2255 281.605 77.3221 279.35L79.9966 277.563L86.2018 290.068L91.3831 293.623C92.5218 294.402 93.6781 294.782 93.7575 296.162L93.7752 296.153Z" fill="#2F2E41"/>
<path d="M43.0391 44.3871H66.6418L66.121 52.0989L81.5148 101.235L84.3924 133.993L55.5466 138.812L42.077 78.1085L44.9634 50.1709L43.0391 44.3871Z" fill="#6C63FF"/>
<path d="M44.4867 50.6485L19.4806 63.1713L34.8656 115.199L31.9792 168.192C31.9792 168.192 71.4082 180.714 69.484 145.065C67.5598 109.416 67.5598 103.632 67.5598 103.632L44.4779 50.6396L44.4867 50.6485Z" fill="#2F2E41"/>
<path d="M84.3924 57.1399C84.3924 57.1399 90.6417 52.5765 93.528 59.3243C96.4144 66.0721 115.171 100.271 115.171 100.271L144.502 87.2619L149.313 97.8568C149.313 97.8568 125.269 120.983 110.846 118.091C96.4232 115.2 84.8778 90.1538 84.8778 90.1538L84.4012 57.1399H84.3924Z" fill="#2F2E41"/>
<path d="M34.8656 158.57C34.8656 158.57 33.9035 173.984 35.8277 186.507C37.7519 199.03 50.736 305.501 50.736 305.501L67.0831 304.537L68.5219 179.759L91.6038 216.373L71.4082 271.293L85.3545 277.554L114.686 217.337L94.4901 148.93L88.7175 131.587L45.44 136.407L34.8568 158.57H34.8656Z" fill="#2F2E41"/>
<path d="M99.3007 162.417C99.3007 162.417 73.3325 170.128 67.5598 103.641L66.2534 50.0383L90.6417 56.4323L87.7553 104.605L99.3007 162.417Z" fill="#2F2E41"/>
<path d="M72.3703 20.7829C72.3703 21.3489 72.3439 21.9149 72.2909 22.4809C72.2379 23.0469 72.1497 23.6041 72.0438 24.1613C71.929 24.7184 71.7966 25.2667 71.6289 25.8151C71.4612 26.3545 71.2758 26.894 71.0552 27.4158C70.8345 27.9376 70.5962 28.4505 70.3314 28.9546C70.0666 29.4587 69.7753 29.9451 69.4575 30.4138C69.1398 30.8826 68.8043 31.3424 68.4425 31.7846C68.0806 32.2268 67.701 32.6425 67.3038 33.0493C66.9066 33.4473 66.4829 33.8364 66.0416 34.1902C65.6002 34.5528 65.1501 34.8888 64.6734 35.2072C64.2056 35.5256 63.7202 35.8174 63.217 36.0827C62.7139 36.348 62.202 36.5957 61.6812 36.8079C61.1604 37.0202 60.622 37.2147 60.0835 37.3828C59.5451 37.5508 58.989 37.6835 58.4329 37.7984C57.8769 37.9134 57.3208 37.993 56.7559 38.0461C56.191 38.0991 55.626 38.1257 55.0611 38.1257C54.4962 38.1257 53.9313 38.0991 53.3664 38.0461C52.8015 37.993 52.2454 37.9046 51.6893 37.7984C51.1332 37.6835 50.586 37.5508 50.0387 37.3828C49.4915 37.2147 48.9619 37.029 48.4411 36.8079C47.9203 36.5868 47.4084 36.348 46.9052 36.0827C46.4021 35.8174 45.9166 35.5256 45.4488 35.2072C44.981 34.8888 44.522 34.5528 44.0807 34.1902C43.6393 33.8276 43.2245 33.4473 42.8185 33.0493C42.4213 32.6513 42.0329 32.2268 41.6798 31.7846C41.3179 31.3424 40.9825 30.8914 40.6647 30.4138C40.347 29.9451 40.0557 29.4587 39.7909 28.9546C39.5261 28.4505 39.2789 27.9376 39.0671 27.4158C38.8464 26.894 38.6611 26.3545 38.4934 25.8151C38.3257 25.2756 38.1933 24.7184 38.0785 24.1613C37.9638 23.6041 37.8843 23.0469 37.8314 22.4809C37.7784 21.9149 37.7519 21.3489 37.7519 20.7829C37.7519 20.2169 37.7784 19.6509 37.8314 19.0849C37.8843 18.5189 37.9726 17.9618 38.0785 17.4046C38.1933 16.8474 38.3257 16.2991 38.4934 15.7508C38.6611 15.2113 38.8464 14.6719 39.0671 14.1501C39.2878 13.6283 39.5261 13.1153 39.7909 12.6112C40.0557 12.1072 40.347 11.6207 40.6647 11.152C40.9825 10.6833 41.3179 10.2234 41.6798 9.78123C42.0417 9.33904 42.4213 8.92338 42.8185 8.51656C43.2157 8.11859 43.6393 7.72947 44.0807 7.37571C44.522 7.01312 44.9722 6.67705 45.4488 6.35867C45.9166 6.0403 46.4021 5.74845 46.9052 5.48314C47.4084 5.21782 47.9203 4.9702 48.4411 4.75794C48.9619 4.54569 49.5003 4.35113 50.0387 4.1831C50.5772 4.01506 51.1332 3.88241 51.6893 3.76744C52.2454 3.65247 52.8015 3.57287 53.3664 3.51981C53.9313 3.46675 54.4962 3.44022 55.0611 3.44022C55.626 3.44022 56.191 3.46675 56.7559 3.51981C57.3208 3.57287 57.8769 3.66131 58.4329 3.76744C58.989 3.87356 59.5363 4.01506 60.0835 4.1831C60.622 4.35113 61.1604 4.53685 61.6812 4.75794C62.202 4.97904 62.7139 5.21782 63.217 5.48314C63.7202 5.74845 64.2056 6.0403 64.6734 6.35867C65.1413 6.67705 65.6002 7.01312 66.0416 7.37571C66.4829 7.73831 66.8978 8.11859 67.3038 8.51656C67.701 8.91454 68.0894 9.33904 68.4425 9.78123C68.8043 10.2234 69.1398 10.6745 69.4575 11.152C69.7753 11.6207 70.0666 12.1072 70.3314 12.6112C70.5962 13.1153 70.8433 13.6283 71.0552 14.1501C71.267 14.6719 71.4612 15.2113 71.6289 15.7508C71.7966 16.2903 71.929 16.8474 72.0438 17.4046C72.1585 17.9618 72.2379 18.5189 72.2909 19.0849C72.3439 19.6509 72.3703 20.2169 72.3703 20.7829Z" fill="#FFB6B6"/>
<path d="M44.0012 37.6481C44.0012 37.6481 36.3043 28.9723 35.3422 25.1253C34.3801 21.2782 34.3801 10.6745 35.3422 9.7105C36.3043 8.74652 46.8876 -0.893235 50.736 0.070741C54.5845 1.03472 62.2108 5.85459 69.0074 5.85459C70.9316 5.85459 71.8937 15.4855 71.8937 15.4855L64.1968 16.4495C64.1968 16.4495 54.5757 11.6296 55.5378 16.4495C56.4999 21.2694 48.803 21.2694 48.803 21.2694L49.7651 25.1253L46.8788 26.0892L44.9545 22.2333C44.9545 22.2333 45.9166 30.9091 48.803 34.7562C51.6893 38.6032 43.9924 37.6481 43.9924 37.6481H44.0012Z" fill="#2F2E41"/>
<path d="M36.3396 176.372C38.9788 180.653 43.3216 182.749 46.0402 181.068C48.7588 179.388 48.8206 174.55 46.1814 170.279C45.1487 168.554 43.7188 167.104 42.0152 166.051L30.6023 148.072L22.2963 153.617L34.4242 170.756C34.6096 172.755 35.2628 174.692 36.3396 176.381V176.372Z" fill="#FFB6B6"/>
<path d="M23.329 63.1802H18.5185C18.5185 63.1802 -0.714964 106.533 0.238322 115.208C0.238322 115.208 0.238322 122.92 5.04889 128.695C9.85946 134.479 30.055 167.237 30.055 167.237L38.714 160.489L21.4048 120.019L31.9881 77.6221L23.329 63.1714V63.1802Z" fill="#2F2E41"/>
<path d="M283.462 325.762C283.462 326.071 283.214 326.319 282.905 326.319H0.556084C0.247148 326.319 0 326.071 0 325.762C0 325.452 0.247148 325.205 0.556084 325.205H282.905C283.214 325.205 283.462 325.452 283.462 325.762Z" fill="#E6E6E6"/>
</g>
</svg>
