<svg width="178" height="27" viewBox="0 0 178 27" fill="none" xmlns="http://www.w3.org/2000/svg">
<path d="M22.0867 17.3589V26.1171H18.9763V20.0896H2.51797V17.3589H10.9002V13.6686H0.944397V10.9378H23.9359V13.6686H13.98V17.3589H22.0806H22.0867ZM22.0867 1.44153V8.93276H18.9763V4.20307H2.79963V1.44153H22.0867Z" fill="#575756"/>
<path d="M28.0565 14.5666V1.6691H40.9269V14.5666H28.0565ZM28.7852 25.5512V17.1559H31.8711V22.7897H49.2846V25.5512H28.7913H28.7852ZM37.8715 4.37529H31.1425V11.8973H37.8715V4.37529ZM45.9415 17.0206V0.937195H49.0519V17.0206H45.9415Z" fill="#575756"/>
<path d="M62.9325 15.0217V18.5397H59.8466V15.0217H53.0318V12.4324H69.7167V15.0217H62.9325ZM63.8326 11.1346V4.37529H54.5809V1.61374H66.943V11.1346H63.8326ZM57.722 17.2174V22.8512H75.5824V25.5574H54.6115V17.2235H57.722V17.2174ZM71.823 10.2305H68.1799V7.66577H71.823V0.937195H74.9089V18.8227H71.823V10.2305Z" fill="#575756"/>
<path d="M92.2734 7.64117C92.2734 8.50838 92.0959 9.31409 91.7407 10.0767C91.3856 10.8394 90.908 11.4913 90.3141 12.0326C89.7141 12.6169 89.0222 13.072 88.2262 13.4103C87.4302 13.7485 86.5791 13.9146 85.6607 13.9146C84.7423 13.9146 83.8912 13.7485 83.0952 13.4103C82.2992 13.072 81.6074 12.6107 81.0073 12.0326C80.4073 11.4913 79.9358 10.8332 79.5929 10.0767C79.2439 9.31409 79.0725 8.50223 79.0725 7.64117C79.0725 6.78011 79.2439 5.9375 79.5929 5.17484C79.9358 4.41219 80.4073 3.75409 81.0073 3.18825C81.6074 2.60396 82.2992 2.14883 83.0952 1.81056C83.8912 1.47228 84.7423 1.30622 85.6607 1.30622C86.5791 1.30622 87.4302 1.47228 88.2262 1.81056C89.0222 2.14883 89.7141 2.61011 90.3141 3.18825C90.9142 3.74794 91.3856 4.41219 91.7407 5.17484C92.0959 5.9375 92.2734 6.7555 92.2734 7.64117ZM80.7195 15.9504H100.711V25.8341H97.6004V18.7365H80.7195V15.9504ZM89.2487 7.64117C89.2487 6.6448 88.8997 5.79604 88.1956 5.09489C87.4976 4.39374 86.6588 4.03701 85.6852 4.03701C84.7117 4.03701 83.8728 4.38759 83.1626 5.09489C82.4523 5.79604 82.0972 6.65095 82.0972 7.64117C82.0972 8.63139 82.4523 9.45555 83.1626 10.1628C83.8728 10.864 84.7117 11.2207 85.6852 11.2207C86.6588 11.2207 87.4914 10.8701 88.1956 10.1628C88.8997 9.4617 89.2487 8.61908 89.2487 7.64117ZM97.6004 0.937195H100.711V14.3144H97.6004V0.937195Z" fill="#575756"/>
<path d="M104.293 18.4536V15.6921H121.033V18.4536H114.022V25.2437H110.967V18.4536H104.293ZM119.128 7.75187C119.128 8.61908 118.957 9.43094 118.608 10.1997C118.265 10.9686 117.781 11.6328 117.163 12.1986C116.545 12.7829 115.834 13.2381 115.032 13.5763C114.23 13.9146 113.367 14.0807 112.454 14.0807C111.542 14.0807 110.679 13.9146 109.877 13.5763C109.075 13.2381 108.364 12.7768 107.746 12.1986C107.128 11.6328 106.644 10.9686 106.289 10.1997C105.934 9.43094 105.756 8.61293 105.756 7.75187C105.756 6.89081 105.934 6.07281 106.289 5.304C106.644 4.5352 107.128 3.85865 107.746 3.27436C108.364 2.69007 109.075 2.23493 109.877 1.89666C110.679 1.55839 111.542 1.39233 112.454 1.39233C113.367 1.39233 114.23 1.55839 115.032 1.89666C115.834 2.23493 116.545 2.69622 117.163 3.27436C117.781 3.85865 118.259 4.5352 118.608 5.304C118.951 6.07281 119.128 6.89081 119.128 7.75187ZM116.153 7.75187C116.153 6.73705 115.791 5.87599 115.057 5.16254C114.328 4.44909 113.459 4.09237 112.448 4.09237C111.438 4.09237 110.575 4.44909 109.852 5.16254C109.136 5.87599 108.775 6.73705 108.775 7.75187C108.775 8.7667 109.136 9.60931 109.852 10.3289C110.575 11.0485 111.438 11.4114 112.448 11.4114C113.459 11.4114 114.328 11.0485 115.057 10.3289C115.785 9.60931 116.153 8.74824 116.153 7.75187ZM122.912 0.937195H125.998V26.0617H122.912V0.937195Z" fill="#575756"/>
<path d="M140.265 15.4153V18.7919H137.179V15.4153H130.364V12.826H147.049V15.4153H140.265ZM135.048 17.611V22.8512H152.908V25.5574H131.938V17.6172H135.048V17.611ZM144.496 6.26347C144.496 7.03227 144.33 7.75802 144.006 8.44687C143.675 9.12957 143.24 9.73846 142.702 10.2612C142.163 10.7656 141.526 11.1715 140.797 11.4729C140.069 11.7743 139.291 11.9219 138.471 11.9219C137.65 11.9219 136.873 11.7743 136.144 11.4729C135.415 11.1715 134.772 10.7656 134.209 10.2612C133.689 9.73846 133.26 9.12957 132.936 8.44687C132.605 7.75802 132.446 7.03227 132.446 6.26347C132.446 5.49466 132.611 4.76891 132.936 4.09236C133.26 3.41581 133.689 2.81922 134.209 2.29029C134.772 1.7675 135.415 1.35542 136.144 1.06635C136.873 0.777279 137.65 0.629669 138.471 0.629669C139.291 0.629669 140.069 0.777279 140.797 1.06635C141.526 1.35542 142.163 1.7675 142.702 2.29029C143.24 2.81922 143.675 3.41581 144.006 4.09236C144.33 4.76891 144.496 5.49466 144.496 6.26347ZM141.55 6.28807C141.55 5.44546 141.25 4.72586 140.65 4.13542C140.05 3.54498 139.322 3.24975 138.465 3.24975C137.607 3.24975 136.873 3.54498 136.279 4.13542C135.679 4.72586 135.385 5.44546 135.385 6.28807C135.385 7.13068 135.685 7.85028 136.279 8.44072C136.879 9.03116 137.607 9.32638 138.465 9.32638C139.322 9.32638 140.05 9.03116 140.65 8.44072C141.25 7.85028 141.55 7.13068 141.55 6.28807ZM149.149 10.6241H145.585V8.05939H149.149V0.93104H152.235V19.0687H149.149V10.618V10.6241Z" fill="#575756"/>
<path d="M172.698 23.5523H156.294V20.8215H162.883V17.6971C162.583 17.6233 162.301 17.5249 162.044 17.4142C161.297 17.1128 160.642 16.7069 160.078 16.2026C159.515 15.6798 159.08 15.0709 158.762 14.3882C158.444 13.6993 158.284 12.9736 158.284 12.2048C158.284 11.436 158.444 10.7102 158.762 10.0337C159.08 9.35712 159.521 8.76053 160.078 8.23159C160.642 7.70881 161.291 7.29673 162.025 7.00766C162.766 6.71859 163.556 6.57098 164.395 6.57098C165.234 6.57098 166.024 6.71859 166.752 7.00766C167.481 7.29673 168.118 7.70881 168.656 8.23159C169.22 8.76053 169.661 9.35712 169.985 10.0337C170.316 10.7102 170.475 11.436 170.475 12.2048C170.475 12.9736 170.31 13.6993 169.985 14.3882C169.661 15.0709 169.214 15.6798 168.656 16.2026C168.118 16.7069 167.481 17.1128 166.752 17.4142C166.452 17.5434 166.146 17.6479 165.828 17.7217V20.8215H172.698V23.5523ZM162.662 3.44656V0.771118H166.03V3.44656H172.116V6.122H156.582V3.44656H162.668H162.662ZM167.456 12.174C167.456 11.3499 167.156 10.6364 166.556 10.046C165.956 9.45553 165.228 9.16031 164.37 9.16031C163.513 9.16031 162.779 9.45553 162.185 10.046C161.585 10.6364 161.291 11.3499 161.291 12.174C161.291 12.9982 161.591 13.7116 162.185 14.3144C162.785 14.9171 163.513 15.2123 164.37 15.2123C165.228 15.2123 165.956 14.911 166.556 14.3144C167.156 13.7116 167.456 12.9982 167.456 12.174ZM174.914 0.93718H178V26.0617H174.914V0.93718Z" fill="#575756"/>
</svg>
